<?xml version="1.0" encoding="utf-8"?>
<!-- Generator: Adobe Illustrator 27.1.1, SVG Export Plug-In . SVG Version: 6.00 Build 0)  -->
<svg version="1.1" id="Layer_1" xmlns="http://www.w3.org/2000/svg" xmlns:xlink="http://www.w3.org/1999/xlink" x="0px" y="0px"
	 viewBox="0 0 1080 1080" style="enable-background:new 0 0 1080 1080;" xml:space="preserve">
<style type="text/css">
	.st0{fill:#1D1D1B;}
	.st1{fill:#FFFFFF;}
	.st2{fill:#FFFFFF;stroke:#000000;stroke-miterlimit:10;}
	.st3{fill:#06FABE;}
	.st4{fill:#606060;}
</style>
<path class="st0" d="M706.9,879.5H373.1c-95.3,0-172.6-77.3-172.6-172.6V373.1c0-95.3,77.3-172.6,172.6-172.6h333.8
	c95.3,0,172.6,77.3,172.6,172.6v333.8C879.5,802.2,802.2,879.5,706.9,879.5z"/>
<path class="st3" d="M484.1,367.6c-79.4,0-145,63.8-145.3,143.2C338.5,590.4,403,655,482.5,655l-25.7,51.4c-1.4,2.8,0.6,6.1,3.7,6.1
	h135.4c79.4,0,145-63.8,145.3-143.2C741.5,489.6,677,425,597.5,425l25.7-51.4c1.4-2.8-0.6-6.1-3.7-6.1H484.1z"/>
</svg>
